<?xml version="1.0" encoding="UTF-8"?>
<svg id="Layer_1" data-name="Layer 1" xmlns="http://www.w3.org/2000/svg" viewBox="0 0 512 512">
  <g id="Background" style="opacity: 0;">
    <rect id="Background-2" width="512" height="512" style="fill: #101066;"/>
  </g>
  <g id="color.three">
    <path id="color.three-2" data-name="color.three" d="M506.19,313.08c.1-.02,.19-.05,.28-.09v1.92c-.06,.05-.13,.1-.19,.15,0-.04,0-.07,0-.1h-12.36v15.93c2.68,.71,5.26-.41,7.6,.65v60.17c-.26,.07-.52,.14-.77,.21-11.7-25.62-23.39-51.24-35.12-76.92h-23.49v15.86c2.48,.67,4.86-.33,7.19,.77v82.15c-2.56,.71-5.04-.24-7.21,.65v15.71h32.75c-.03-5.43,.2-10.61-.21-15.82-2.58-.63-5.05,.2-7.35-.64v-58.04c.54,.11,.86,.09,.91,.2,11.84,24.48,22.44,49.52,33.67,74.27,1.47,.23,2.85,.5,4.2-.02,.29,.24,.59,.47,.89,.68v1.04s-.78,0-.78,0c-.04,0-.08,0-.11,.01-1.71-.5-3.65,.27-5.31-.52-10.57-23.66-20.79-47.36-32.18-70.46v51.52c2.49,.65,4.95-.14,7.34,.58v18.48h-35.28v-18.52c2.6-.67,5.07,.25,7.3-.69v-79.17c-2.52-.81-5.02,.23-7.41-.84v-18.7h26.01c11.05,24.24,22.12,48.52,33.18,72.79,.15-.07,.29-.14,.44-.21v-53.02c-2.63-.83-5.22,.11-7.77-.77v-19.07h13.7c.03-.06,.05-.12,.08-.18Zm.11,121.35s-.02,.06-.02,.09c-2.21,.54-4.48,.22-7,.15-9.09-20.33-18.2-40.68-27.3-61.03-.24,.07-.48,.13-.71,.2v35.57c2.47,.74,4.93,.03,7.5,.69v24.52h-40.64v-24.29c2.17-1.19,4.61,0,6.96-.95v-73.95h-7.01v-24.55h30.06c9.52,20.56,19,41.03,28.47,61.5,.25-.05,.5-.1,.74-.15v-36.74h-7.38v-24.53c5.34-.65,10.72-.25,15.88-.23,.04,.04,.07,.07,.1,.11,0,0,0,0,0,0,.19,0,.36,.04,.5,.11v-1.83c-6.14,.68-12.01-.33-17.8,.5v27.05c2.53,.73,5.02-.15,7.35,.81v28.81c-.2,.06-.41,.12-.61,.19-8.75-18.94-17.49-37.88-26.34-57.05-10.89-.01-21.72-.31-32.58,.1v27.08c2.57,.94,5.2-.19,7.52,.89v70.71c-2.54,.76-5.03-.13-7.5,.71v27.11h43.78v-27.06c-2.66-.97-5.26,.05-7.84-.85v-28.76c.14-.02,.28-.05,.41-.07,8.52,18.96,17.05,37.91,25.64,57.02h7.77v.06c.24-.08,.49-.16,.74-.23v-1.7h-.7ZM127.79,309.63v27.17c2.84,.6,5.52-.29,8.27,.65v20.37h-24.42v-20.48c2.57-.82,5.06,.21,7.59-.8v-26.93h-47.58v27.08c2.36,.68,4.63-.18,6.74,.71v70.69c-2.25,.98-4.58-.08-6.72,.91v26.98h47.71c-.17-9.27,.37-18.3-.28-27.23-2.71-.6-5.06,.13-7.43-.64v-22.72h24.41v22.74c-2.86,.83-5.67-.2-8.34,.82v27.07h47.55v-27.1c-2.56-1.05-5.31,.22-7.79-.89v-70.66c2.64-.87,5.26,.22,7.79-.89v-26.85h-47.51Zm46.25,25.42c-2.62,.87-5.3-.07-7.95,.67v73.64c2.46,.98,5.16-.08,7.89,.76v24.49h-44.7v-24.78h7.95v-26h-26.93v25.78c2.5,.12,4.86,.24,7.52,.37v24.66h-44.91c-.09-8.21-.32-16.32,.03-24.38,2.3-.99,4.61,.07,6.83-.86v-73.5c-2.15-.93-4.42-.1-6.99-.77-.4-7.95-.23-15.94-.14-24.22h45.22v24.55h-7.59v23.96h26.9v-23.65c-2.56-.85-5.22,0-7.98-.58v-24.32h44.85v24.18Zm259.35,12.16c.36-12.53,.25-24.94,.06-37.62h-84.93v27.05c2.38,.85,4.8-.18,6.95,.82v70.65c-2.17,.92-4.4-.24-6.33,.91v27h84.17v-37.65c-4.37-.97-29.07-.67-31.05,.31,.68,1.45,2.46,.21,3.47,1.62-.24,2.47,.3,5.27-.59,8.09-6.06,0-11.88,.27-17.83-.11v-23.15h30.69v-27.03h-30.89c.03-7.22-.27-14.04,.16-21.04,6.39-.12,12.42-.26,18.5,.06,.63,3.38,.04,6.53,.42,10.07h27.2Zm-1.32-1.45h-24.57v-10.04h-21.6v23.98h30.67v24.03h-30.58v25.95c6.84,.11,13.67,.34,20.88-.07v-9.85h25.06v34.83h-81.19v-24.47c2.37-.73,4.72,.07,7.25-.57-1.34-1.74-1.03-3.67-1.03-5.55,0-21.49,0-42.97,0-64.46,0-1.23,.27-2.5-.39-3.85-2.05-.62-4.29,.02-6.66-.54v-24.25h82.05c.32,11.75,.29,23.21,.1,34.85Zm-88.96-18.36c.03-1.82-.5-3.22-1.8-4.46-4.24-4.06-8.43-8.16-12.63-12.25-1.04-1.02-2.28-1.34-3.72-1.33-13.84,.03-27.69,.03-41.53,.02-1.3,0-2.5,.18-3.48,1.13-5.2,5.02-10.4,10.03-15.43,14.88v45.35c5.46,4.62,10.11,10.06,15.98,14.64h35.06v23.09c-7.58-.09-14.84,.23-22.21-.21v-8.04c.16-1.1,1.65-.64,1.67-2.05h-30.57v21.48c5.21,5.5,9.82,10.36,14.43,15.23,1.1,1.16,2.51,1.33,4.03,1.32,6.61-.03,13.22,.01,19.83,.02,8.17,0,16.34,0,24.47,0,5.3-5.33,10.89-10.09,15.78-15.41v-49.13c-5.18-5.2-10.27-10.31-15.85-15.91h-33.92c-.02-6.51-.26-12.53,.09-18.56h21.69c.6,3.44-.23,6.71,.53,10.05h27.54c0-6.89-.06-13.37,.04-19.84Zm-16.53,29.85c5.08,5.04,10.35,9.67,15.14,14.96v46.8c-5.28,5.77-9.95,10.86-14.48,15.82-10.64,0-20.81,0-30.97,0-4.41,0-8.81-.05-13.22-.05-1.29,0-2.5-.11-3.47-1.1-4.56-4.61-9.14-9.21-13.81-13.91v-19.98h25.66c.82,3.2,.17,6.48,.73,9.85h24.84v-25.32c-1.01-.88-2.22-.51-3.33-.51-10.17-.05-20.35-.08-30.52-.04-1.68,0-3.09-.4-4.29-1.54-4.34-4.1-8.68-8.2-13.03-12.31v-43.53c4.86-5.31,10.36-10.44,15.81-15.6h45.19c4.7,5.08,10.32,9.21,14.72,14.76v20.16h-24.81v-9.99h-24.85v21.54h34.72Zm-259.09-10.04c.19-.49,.4-.77,.4-1.06,.04-6.92,.06-13.83,.09-20.75,0-1.01-.39-1.85-1.08-2.53-4.71-4.61-9.2-9.46-13.85-13.53-2.21,0-3.98,0-5.76,0-13.11-.01-26.22-.04-39.33-.02-1.11,0-2.57-.38-2.97,1.53H52.81c4.65,4.74,9.56,9.14,13.6,13.71v21.07h-24.66c-.56-3.44,.17-6.7-.5-9.95H15.68v73.99h25.92v-9.91h24.99v19.43c-5.2,5.77-9.76,10.82-14.1,15.65-15.87,0-31.07,0-46.28,.01-.29,0-.59,.16-.87,.28-.06,.03-.08,.19-.1,.29-.01,.09,0,.19,.03,.56H53.15c4.41-4.8,9.29-10.11,14.63-15.92v-21.94h-27.23c-.4,3.52,.37,6.89-.56,10.12H16.97v-71.06h23.37v10.03h27.14Zm-16.44,83.15c-15.31,.13-30.24-.07-45.63,.13,.83,1.19,1.38,1.16,1.88,1.16,14.16,.02,28.32,.02,42.49,.05,1.23,0,2.28-.34,3.14-1.19,3.58-3.52,7.15-7.06,10.77-10.64,.17-5.91,.41-11.7-.17-17.43h-18.82c-.86,3.43,.33,6.86-.9,10.04H12.84v-79.49h31.4v9.85h19.38v-17.43c-3.78-4.04-8.01-8.07-12.34-12.1-2.07,0-4.06,0-6.05,0-12.17,0-24.34,0-36.51,.02-1.51,0-3.16-.19-3.65,1.8H51.46c3.47,3.54,7.19,7.34,10.78,11v15.24h-16.24c-1.05-3.42,.14-6.85-.84-10.09H11.42v82.59H45.2c.94-3.24-.18-6.55,.75-9.72h16.43v14.29c-3.99,4.19-7.73,8.13-11.33,11.91Zm129.63-8.99c5.1,4.92,10.22,9.85,15.31,14.76h47.17c5.3-5.05,10.67-10.17,16.07-15.31v-95.77c-4.93-4.72-9.79-9.33-14.59-14-1.3-1.27-2.73-1.69-4.52-1.69-13.63,.05-27.25,.03-40.88,0-1.57,0-2.83,.39-3.97,1.5-4.81,4.66-9.67,9.28-14.6,14v96.52Zm61.93,13.34h-45.96c-4.85-4.63-9.7-9.25-14.63-13.96v-95.13c5.03-4.84,9.83-10.1,15.44-14.82h44.89c5.17,4.94,10.3,9.85,15.43,14.75v94.65c-5.26,5.03-10.18,9.74-15.17,14.5Zm-135.24-101.57c2.61-.88,5.23,.23,7.61-.82v-18.71h-39.6v18.68c2.42,1.06,4.83-.02,7.2,.85v79.26c-2.43,.71-4.82-.27-6.97,.75v18.3h39.34v-18.81h-7.46v-31.66h32.57v31.47c-2.88,.58-5.64-.17-8.34,.53v18.44h39.35v-18.43c-2.68-.79-5.37,.24-7.87-.73v-79.19c2.69-.78,5.4,.35,7.75-.74v-18.8h-39.27v18.93c2.9,.82,5.8-.26,8.36,.69v29.27h-32.67v-29.27Zm-30.68-2.3c-.2-5.15-.22-10.4,.06-15.82h36.95v15.74c-2.37,.91-4.95-.15-7.65,.63v32.72h35.31v-32.56c-2.84-.93-5.6,0-8.4-.64v-15.87h36.82v15.77c-2.46,.79-5.14-.18-7.85,.61v82.64h7.99v16.13h-36.95v-16.07h8.43v-34.43h-35.36v34.13c2.5,.65,5.04-.04,7.65,.49v15.88h-36.68v-15.7c2.04-.95,4.33,.04,6.74-.73v-82.27c-2.39-.74-4.53-.05-7.06-.65Zm306.33,81.61v-31.76h30.56c.35-6.11,.23-11.91,.05-18.15h-30.64v-29.54h27.21c.45,3.39-.15,6.63,.43,9.71h18.4v-29.2h-76.4v18.94c2.31,.81,4.71-.22,6.93,.71v79.12c-2.19,.87-4.4-.14-6.71,.99,0,5.97-.27,12.06,.16,18.21h76.06v-29.04h-19.48v10.01h-26.58Zm-1.31-33.02v34.4h29.25v-9.75c5.89-.33,11.26-.2,16.82-.09v26.17h-73.41v-15.67c2.07-.92,4.35,.04,6.7-.71v-82.1c-2.26-1.2-4.67-.02-7.09-.88v-15.72h73.71v26.38c-5.09,.28-10.25,.2-15.53,.02-.86-3.37,0-6.65-.64-10.09h-29.75v32.86h30.56v15.2h-30.62Zm-57.23,52.27c1.24,0,2.26-.38,3.12-1.23,3.36-3.31,6.68-6.65,10.07-9.92,1.08-1.04,1.43-2.24,1.42-3.67-.01-14.46,0-28.92,0-43.62-4.21-4.55-8.89-8.88-13.82-13.48h-36.13v-26.76h29.92c.69,3.39-.27,6.67,.62,9.72h18.99v-16.33c-3.96-4.76-8.73-8.71-13.06-12.97h-43.02c-5.08,4.27-9.28,9.09-13.85,13.32-.11,.37-.22,.57-.22,.77-.02,13.31-.02,26.62-.05,39.93,0,1.28,.57,2.2,1.45,3,3.72,3.38,7.44,6.75,11.5,10.43h38.27v31.53h-30.72v-9.96h-20.46c-.38,5.68-.21,11.09-.17,15.43,4.67,5.08,8.71,9.48,12.67,13.79,14.95,0,29.21,0,43.48,.02Zm.66-70.08c4.49,3.77,8.13,7.98,12.32,11.9v44.91c-3.87,4.08-7.62,8.02-11.23,11.82h-44.14c-3.66-3.54-7.49-7.24-11.32-10.96-.53-.52-1.01-1.13-1.01-1.9-.02-4.37-.01-8.73-.01-13.3h17.72c.69,3.18-.09,6.44,.51,9.78h33.36v-34.34h-39.41c-4.12-3.81-7.96-7.36-11.86-10.97v-39.65c4.47-4.89,8.17-8.89,11.82-12.93,.87-.96,1.94-1.16,3.12-1.16,13.21,0,26.43,0,39.67,0,4.56,3.67,8.63,7.71,12.51,11.92v14.77c-5.5,.07-10.79,.21-16.2-.15-1.02-3.41,.03-6.82-.8-10.1h-32.28v30.35h37.21Zm-82.64,70.05c3.88-4.23,7.97-8.7,12.56-13.71v-90.01c-4.93-5.49-9.13-10.16-13.07-14.55h-43.69c-3.37,3.15-6.57,6.33-9.99,9.25-2.68,2.29-3.57,4.84-3.55,8.45,.18,28.5,.1,57.01,.09,85.51,0,1.59,.01,3.06,1.29,4.34,3.62,3.64,7.27,7.25,11.3,10.72h45.05Zm-56.41-104.77c4.28-4.06,8.52-8.09,12.63-12h41.77c4.5,3.56,8.2,7.86,12.32,11.72,1.36,1.27,1.27,3.01,1.27,4.69,.01,21.17,.04,42.34,.04,63.5,0,6.92-.12,13.83-.09,20.75,0,2.04-.74,3.47-2.18,4.93-3.3,3.36-6.35,6.98-8.89,9.8h-45.19c-3.93-3.73-7.89-7.46-11.69-11.67v-91.73Zm50.75,4.47h-33.93v82.57h33.93v-82.57Zm-1.39,81.12h-31.17v-79.42h31.17v79.42Zm-2.84-2.88v-73.94h-25.76v73.94h25.76Zm-24.17-1.27v-71.12h22.92v71.12h-22.92Z" style="fill: #2f2f2f;"/>
  </g>
  <g id="color.two">
    <path id="color.two-2" data-name="color.two" d="M506.19,9.19c.1-.02,.19-.05,.28-.09v1.92c-.06,.05-.13,.1-.19,.15,0-.04,0-.07,0-.1h-12.36v15.93c2.68,.71,5.26-.41,7.6,.65v60.17c-.26,.07-.52,.14-.77,.21-11.7-25.62-23.39-51.24-35.12-76.92h-23.49v15.86c2.48,.67,4.86-.33,7.19,.77V109.89c-2.56,.71-5.04-.24-7.21,.65v15.71h32.75c-.03-5.43,.2-10.61-.21-15.82-2.58-.63-5.05,.2-7.35-.64V51.76c.54,.11,.86,.09,.91,.2,11.84,24.48,22.44,49.52,33.67,74.27,1.47,.23,2.85,.5,4.2-.02,.29,.24,.59,.47,.89,.68v1.04s-.78,0-.78,0c-.04,0-.08,0-.11,.01-1.71-.5-3.65,.27-5.31-.52-10.57-23.66-20.79-47.36-32.18-70.46v51.52c2.49,.65,4.95-.14,7.34,.58v18.48h-35.28v-18.52c2.6-.67,5.07,.25,7.3-.69V29.18c-2.52-.81-5.02,.23-7.41-.84V9.64h26.01c11.05,24.24,22.12,48.52,33.18,72.79,.15-.07,.29-.14,.44-.21V29.21c-2.63-.83-5.22,.11-7.77-.77V9.37h13.7c.03-.06,.05-.12,.08-.18Zm.11,121.35s-.02,.06-.02,.09c-2.21,.54-4.48,.22-7,.15-9.09-20.33-18.2-40.68-27.3-61.03-.24,.07-.48,.13-.71,.2v35.57c2.47,.74,4.93,.03,7.5,.69v24.52h-40.64v-24.29c2.17-1.19,4.61,0,6.96-.95V31.52h-7.01V6.97h30.06c9.52,20.56,19,41.03,28.47,61.5,.25-.05,.5-.1,.74-.15V31.58h-7.38V7.05c5.34-.65,10.72-.25,15.88-.23,.04,.04,.07,.07,.1,.11,0,0,0,0,0,0,.19,0,.36,.04,.5,.11v-1.83c-6.14,.68-12.01-.33-17.8,.5v27.05c2.53,.73,5.02-.15,7.35,.81v28.81c-.2,.06-.41,.12-.61,.19-8.75-18.94-17.49-37.88-26.34-57.05-10.89-.01-21.72-.31-32.58,.1v27.08c2.57,.94,5.2-.19,7.52,.89V104.3c-2.54,.76-5.03-.13-7.5,.71v27.11h43.78v-27.06c-2.66-.97-5.26,.05-7.84-.85v-28.76c.14-.02,.28-.05,.41-.07,8.52,18.96,17.05,37.91,25.64,57.02h7.77v.06c.24-.08,.49-.16,.74-.23v-1.7h-.7ZM127.79,5.74v27.17c2.84,.6,5.52-.29,8.27,.65v20.37h-24.42v-20.48c2.57-.82,5.06,.21,7.59-.8V5.72h-47.58v27.08c2.36,.68,4.63-.18,6.74,.71V104.21c-2.25,.98-4.58-.08-6.72,.91v26.98h47.71c-.17-9.27,.37-18.3-.28-27.23-2.71-.6-5.06,.13-7.43-.64v-22.72h24.41v22.74c-2.86,.83-5.67-.2-8.34,.82v27.07h47.55v-27.1c-2.56-1.05-5.31,.22-7.79-.89V33.48c2.64-.87,5.26,.22,7.79-.89V5.74h-47.51Zm46.25,25.42c-2.62,.87-5.3-.07-7.95,.67V105.47c2.46,.98,5.16-.08,7.89,.76v24.49h-44.7v-24.78h7.95v-26h-26.93v25.78c2.5,.12,4.86,.24,7.52,.37v24.66h-44.91c-.09-8.21-.32-16.32,.03-24.38,2.3-.99,4.61,.07,6.83-.86V31.99c-2.15-.93-4.42-.1-6.99-.77-.4-7.95-.23-15.94-.14-24.22h45.22V31.56h-7.59v23.96h26.9V31.87c-2.56-.85-5.22,0-7.98-.58V6.98h44.85V31.16Zm259.35,12.16c.36-12.53,.25-24.94,.06-37.62h-84.93v27.05c2.38,.85,4.8-.18,6.95,.82V104.22c-2.17,.92-4.4-.24-6.33,.91v27h84.17v-37.65c-4.37-.97-29.07-.67-31.05,.31,.68,1.45,2.46,.21,3.47,1.62-.24,2.47,.3,5.27-.59,8.09-6.06,0-11.88,.27-17.83-.11v-23.15h30.69v-27.03h-30.89c.03-7.22-.27-14.04,.16-21.04,6.39-.12,12.42-.26,18.5,.06,.63,3.38,.04,6.53,.42,10.07h27.2Zm-1.32-1.45h-24.57v-10.04h-21.6v23.98h30.67v24.03h-30.58v25.95c6.84,.11,13.67,.34,20.88-.07v-9.85h25.06v34.83h-81.19v-24.47c2.37-.73,4.72,.07,7.25-.57-1.34-1.74-1.03-3.67-1.03-5.55,0-21.49,0-42.97,0-64.46,0-1.23,.27-2.5-.39-3.85-2.05-.62-4.29,.02-6.66-.54V7.01h82.05c.32,11.75,.29,23.21,.1,34.85Zm-88.96-18.36c.03-1.82-.5-3.22-1.8-4.46-4.24-4.06-8.43-8.16-12.63-12.25-1.04-1.02-2.28-1.34-3.72-1.33-13.84,.03-27.69,.03-41.53,.02-1.3,0-2.5,.18-3.48,1.13-5.2,5.02-10.4,10.03-15.43,14.88v45.35c5.46,4.62,10.11,10.06,15.98,14.64h35.06v23.09c-7.58-.09-14.84,.23-22.21-.21v-8.04c.16-1.1,1.65-.64,1.67-2.05h-30.57v21.48c5.21,5.5,9.82,10.36,14.43,15.23,1.1,1.16,2.51,1.33,4.03,1.32,6.61-.03,13.22,.01,19.83,.02,8.17,0,16.34,0,24.47,0,5.3-5.33,10.89-10.09,15.78-15.41v-49.13c-5.18-5.2-10.27-10.31-15.85-15.91h-33.92c-.02-6.51-.26-12.53,.09-18.56h21.69c.6,3.44-.23,6.71,.53,10.05h27.54c0-6.89-.06-13.37,.04-19.84Zm-16.53,29.85c5.08,5.04,10.35,9.67,15.14,14.96v46.8c-5.28,5.77-9.95,10.86-14.48,15.82-10.64,0-20.81,0-30.97,0-4.41,0-8.81-.05-13.22-.05-1.29,0-2.5-.11-3.47-1.1-4.56-4.61-9.14-9.21-13.81-13.91v-19.98h25.66c.82,3.2,.17,6.48,.73,9.85h24.84v-25.32c-1.01-.88-2.22-.51-3.33-.51-10.17-.05-20.35-.08-30.52-.04-1.68,0-3.09-.4-4.29-1.54-4.34-4.1-8.68-8.2-13.03-12.31V22.49c4.86-5.31,10.36-10.44,15.81-15.6h45.19c4.7,5.08,10.32,9.21,14.72,14.76v20.16h-24.81v-9.99h-24.85v21.54h34.72ZM67.49,43.31c.19-.49,.4-.77,.4-1.06,.04-6.92,.06-13.83,.09-20.75,0-1.01-.39-1.85-1.08-2.53-4.71-4.61-9.2-9.46-13.85-13.53-2.21,0-3.98,0-5.76,0-13.11-.01-26.22-.04-39.33-.02-1.11,0-2.57-.38-2.97,1.53H52.81c4.65,4.74,9.56,9.14,13.6,13.71v21.07h-24.66c-.56-3.44,.17-6.7-.5-9.95H15.68V105.77h25.92v-9.91h24.99v19.43c-5.2,5.77-9.76,10.82-14.1,15.65-15.87,0-31.07,0-46.28,.01-.29,0-.59,.16-.87,.28-.06,.03-.08,.19-.1,.29-.01,.09,0,.19,.03,.56H53.15c4.41-4.8,9.29-10.11,14.63-15.92v-21.94h-27.23c-.4,3.52,.37,6.89-.56,10.12H16.97V33.28h23.37v10.03h27.14Zm-16.44,83.15c-15.31,.13-30.24-.07-45.63,.13,.83,1.19,1.38,1.16,1.88,1.16,14.16,.02,28.32,.02,42.49,.05,1.23,0,2.28-.34,3.14-1.19,3.58-3.52,7.15-7.06,10.77-10.64,.17-5.91,.41-11.7-.17-17.43h-18.82c-.86,3.43,.33,6.86-.9,10.04H12.84V29.09h31.4v9.85h19.38V21.51c-3.78-4.04-8.01-8.07-12.34-12.1-2.07,0-4.06,0-6.05,0-12.17,0-24.34,0-36.51,.02-1.51,0-3.16-.19-3.65,1.8H51.46c3.47,3.54,7.19,7.34,10.78,11v15.24h-16.24c-1.05-3.42,.14-6.85-.84-10.09H11.42V109.98H45.2c.94-3.24-.18-6.55,.75-9.72h16.43v14.29c-3.99,4.19-7.73,8.13-11.33,11.91Zm129.63-8.99c5.1,4.92,10.22,9.85,15.31,14.76h47.17c5.3-5.05,10.67-10.17,16.07-15.31V21.15c-4.93-4.72-9.79-9.33-14.59-14-1.3-1.27-2.73-1.69-4.52-1.69-13.63,.05-27.25,.03-40.88,0-1.57,0-2.83,.39-3.97,1.5-4.81,4.66-9.67,9.28-14.6,14V117.46Zm61.93,13.34h-45.96c-4.85-4.63-9.7-9.25-14.63-13.96V21.71c5.03-4.84,9.83-10.1,15.44-14.82h44.89c5.17,4.94,10.3,9.85,15.43,14.75V116.3c-5.26,5.03-10.18,9.74-15.17,14.5ZM107.38,29.23c2.61-.88,5.23,.23,7.61-.82V9.7h-39.6V28.38c2.42,1.06,4.83-.02,7.2,.85V108.48c-2.43,.71-4.82-.27-6.97,.75v18.3h39.34v-18.81h-7.46v-31.66h32.57v31.47c-2.88,.58-5.64-.17-8.34,.53v18.44h39.35v-18.43c-2.68-.79-5.37,.24-7.87-.73V29.17c2.69-.78,5.4,.35,7.75-.74V9.62h-39.27V28.55c2.9,.82,5.8-.26,8.36,.69v29.27h-32.67V29.23Zm-30.68-2.3c-.2-5.15-.22-10.4,.06-15.82h36.95v15.74c-2.37,.91-4.95-.15-7.65,.63V60.2h35.31V27.64c-2.84-.93-5.6,0-8.4-.64V11.13h36.82v15.77c-2.46,.79-5.14-.18-7.85,.61V110.15h7.99v16.13h-36.95v-16.07h8.43v-34.43h-35.36v34.13c2.5,.65,5.04-.04,7.65,.49v15.88h-36.68v-15.7c2.04-.95,4.33,.04,6.74-.73V27.58c-2.39-.74-4.53-.05-7.06-.65ZM383.02,108.54v-31.76h30.56c.35-6.11,.23-11.91,.05-18.15h-30.64V29.1h27.21c.45,3.39-.15,6.63,.43,9.71h18.4V9.61h-76.4V28.55c2.31,.81,4.71-.22,6.93,.71V108.37c-2.19,.87-4.4-.14-6.71,.99,0,5.97-.27,12.06,.16,18.21h76.06v-29.04h-19.48v10.01h-26.58Zm-1.31-33.02v34.4h29.25v-9.75c5.89-.33,11.26-.2,16.82-.09v26.17h-73.41v-15.67c2.07-.92,4.35,.04,6.7-.71V27.76c-2.26-1.2-4.67-.02-7.09-.88V11.16h73.71v26.38c-5.09,.28-10.25,.2-15.53,.02-.86-3.37,0-6.65-.64-10.09h-29.75V60.32h30.56v15.2h-30.62Zm-57.23,52.27c1.24,0,2.26-.38,3.12-1.23,3.36-3.31,6.68-6.65,10.07-9.92,1.08-1.04,1.43-2.24,1.42-3.67-.01-14.46,0-28.92,0-43.62-4.21-4.55-8.89-8.88-13.82-13.48h-36.13V29.13h29.92c.69,3.39-.27,6.67,.62,9.72h18.99V22.52c-3.96-4.76-8.73-8.71-13.06-12.97h-43.02c-5.08,4.27-9.28,9.09-13.85,13.32-.11,.37-.22,.57-.22,.77-.02,13.31-.02,26.62-.05,39.93,0,1.28,.57,2.2,1.45,3,3.72,3.38,7.44,6.75,11.5,10.43h38.27v31.53h-30.72v-9.96h-20.46c-.38,5.68-.21,11.09-.17,15.43,4.67,5.08,8.71,9.48,12.67,13.79,14.95,0,29.21,0,43.48,.02Zm.66-70.08c4.49,3.77,8.13,7.98,12.32,11.9v44.91c-3.87,4.08-7.62,8.02-11.23,11.82h-44.14c-3.66-3.54-7.49-7.24-11.32-10.96-.53-.52-1.01-1.13-1.01-1.9-.02-4.37-.01-8.73-.01-13.3h17.72c.69,3.18-.09,6.44,.51,9.78h33.36v-34.34h-39.41c-4.12-3.81-7.96-7.36-11.86-10.97V25.02c4.47-4.89,8.17-8.89,11.82-12.93,.87-.96,1.94-1.16,3.12-1.16,13.21,0,26.43,0,39.67,0,4.56,3.67,8.63,7.71,12.51,11.92v14.77c-5.5,.07-10.79,.21-16.2-.15-1.02-3.41,.03-6.82-.8-10.1h-32.28v30.35h37.21Zm-82.64,70.05c3.88-4.23,7.97-8.7,12.56-13.71V24.05c-4.93-5.49-9.13-10.16-13.07-14.55h-43.69c-3.37,3.15-6.57,6.33-9.99,9.25-2.68,2.29-3.57,4.84-3.55,8.45,.18,28.5,.1,57.01,.09,85.51,0,1.59,.01,3.06,1.29,4.34,3.62,3.64,7.27,7.25,11.3,10.72h45.05ZM186.08,23c4.28-4.06,8.52-8.09,12.63-12h41.77c4.5,3.56,8.2,7.86,12.32,11.72,1.36,1.27,1.27,3.01,1.27,4.69,.01,21.17,.04,42.34,.04,63.5,0,6.92-.12,13.83-.09,20.75,0,2.04-.74,3.47-2.18,4.93-3.3,3.36-6.35,6.98-8.89,9.8h-45.19c-3.93-3.73-7.89-7.46-11.69-11.67V23Zm50.75,4.47h-33.93V110.04h33.93V27.47Zm-1.39,81.12h-31.17V29.18h31.17V108.6Zm-2.84-2.88V31.79h-25.76V105.72h25.76Zm-24.17-1.27V33.34h22.92V104.45h-22.92Z" style="fill: #858585;"/>
  </g>
  <g id="color.one">
    <path id="color.one-2" data-name="color.one" d="M165.34,255.69v-69.7c2.62-.13,4.99-.25,7.52-.38v-25.97h-45.59c-.08,8.81-.29,17.32,.16,25.98,2.82,.17,5.18,.31,7.58,.46v20.29h-25.19v-20.33c2.76-.15,5.42-.29,8.27-.45v-25.93h-46.44v25.91c3,.18,5.76,.34,8.42,.49,.94,4.79,.66,67.18-.31,69.56-1.97,.12-4.02,.24-6.16,.36v25.95c.8,.13,1.31,.28,1.81,.28,13.45,.01,26.9,.02,40.35-.02,.77,0,1.53-.43,2.29-.66l.06-25.1c-2.62-.36-5.23-.73-7.92-1.1v-21.8c8.81,.11,17.33-1.07,25.98,.1v21.98c-2.99,.14-5.66,.26-8.48,.38v25.97h45.05c1.13-2.69,1.24-23.04,.05-26.27h-7.47Zm6.86,24.99h-43.57v-23.46c2.85-.15,5.63-.29,8.72-.45v-24.21h-28.38v24.18c2.94,.12,5.74,.24,8.54,.36,0,7.93-.01,15.86-.02,23.79h-43.1v-23.65c2.29-.15,4.54-.3,7.03-.46v-71.86c-2.73-.14-5.41-.27-8-.4-1.04-2.42-1.21-20.17-.23-23.7h43.57v23.54c-2.65,.23-5.19,.45-7.92,.69v22.54c9.13,.28,18.16-.56,27.44-.23v-22.29c-2.65-.22-5.1-.43-7.74-.65v-23.81c14.44-.08,28.84-.03,43.54,0v23.74c-2.53,.19-4.98,.38-7.68,.59v71.73c2.51,.19,5.05,.39,7.8,.6v23.4Zm233.43-35.81v10.78h-19.33c-.04-7.31-.08-14.62-.12-21.93,1.22-.19,2.45-.54,3.67-.55,7.98-.05,15.97-.02,23.95-.04,1.12,0,2.24-.12,3.26-.18,1.05-4.35,.71-23.77-.55-26.46h-30.2v-20.41h19.28c.18,3.39,.36,6.57,.54,9.92h25.88v-36.36h-81.5v26.04c2.45,.12,4.6,.23,6.91,.34v69.54c-2.51,.16-4.76,.3-7.34,.46-.07,8.82-.05,17.34,.02,25.94h81.98c1.1-3.48,.95-35.35-.08-37.72-4.48-.78-23.79-.48-26.36,.62Zm25.73,35.8h-80.11v-23.46c2.35-.15,4.6-.29,7.04-.45v-71.58c-2.1-.17-4.23-.35-6.58-.54v-23.76h79.3c.26,11.24,.01,22.49,.11,34.05h-23.97v-10.27c-7.64,.17-14.78-.36-22.09,.34v22.63h31.08v24.42c-1.41,.13-2.72,.34-4.03,.34-7.77,.03-15.55,0-23.32,.05-1.07,0-2.14,.43-3.21,.67,.02,7.75,.04,15.51,.06,23.26,.67,.21,1.33,.61,2,.61,5.78,.05,11.56,.03,17.33,0,.5,0,1.01-.16,2.1-.34v-11.31h24.29v35.33ZM52.82,160.72c4.49,4.1,8.82,8.39,12.97,12.39v22.6h-27.1v-9.62H16.95v69.4h21.52v-11.28h26.55v23.29c-2.32,2.2-5.05,4.78-7.78,7.37-.28,.3-.57,.6-.86,.89h0l-5.23,5.51h0c-.23,.27-.44,.53-.61,.73H5.31c0-.36-.03-.47,0-.56,.03-.08,.12-.17,.21-.2,.3-.09,.6-.21,.9-.21,14.27-.01,28.54,0,42.56,0,.74-.51,1.39-.97,2.02-1.4l5.29-4.93h0c.12-.11,.23-.22,.35-.32,1.66-1.74,3.18-3.65,5.01-5.19,2.05-1.72,2.86-3.83,2.83-6.34-.06-5.24-.2-10.48-.34-15.73-.01-.5-.21-1-.38-1.76h-24v10.81c-2.31,.99-19.25,1.28-23.91,.44v-71.15c2.26-.97,19.22-1.18,23.55-.21v9.68h24.56c.98-2.13,1.31-13.37,.55-20.88-4.41-4.18-9.05-8.56-14.06-13.31H5.46c-.15,.05-.3,.1-.46,.15,.03-.18,.06-.35,.09-.51,1.03-.34,2.06-.96,3.09-.97,13.66-.06,27.32-.07,40.98,.02,1.24,0,2.77,.49,3.66,1.3Zm205,11.58c-3.68-3.59-7.47-7.07-11.08-10.72-1.6-1.62-3.28-2.28-5.56-2.26-14.48,.09-28.97,.05-43.45,.06-.93,0-1.87,.09-2.83,.13-4.05,3.92-7.98,7.84-12.05,11.63-1.59,1.48-2.21,3.09-2.2,5.25,.06,12.27,0,24.55,0,36.82,0,17.31-.01,34.62,.04,51.93,0,1.3,.13,2.94,.89,3.82,1.7,1.96,3.83,3.53,5.79,5.27,1.02,.91,2.03,1.81,3.05,2.71,.19,.18,.37,.37,.56,.55,1.51,1.58,3.01,3.15,4.38,4.59h49.13c2.65-2.76,5.41-5.62,8.17-8.49,1.86-1.81,3.73-3.62,5.59-5.44,.19-1.22,.53-2.43,.53-3.65,.05-9.13,.06-18.25,.05-27.38-.01-21.09-.04-42.17-.06-63.26-.31-.52-.52-1.15-.95-1.56Zm-.53,96.41c-1.16,.95-3.18,2.62-5.21,4.28-2.87,2.59-5.74,5.17-8.73,7.87h-47.2c-1.61-1.32-3.14-2.58-4.66-3.84-.2-.21-.39-.42-.59-.63-.99-.92-1.97-1.83-2.96-2.75-1.97-1.89-3.93-3.78-5.92-5.69v-93.11c4.74-5.08,9.03-9.67,13.22-14.16h49.16c4.38,4.63,9.04,9.56,13.7,14.49,0,1.63,.01,3.27,.02,4.9,0,.67,0,1.34,0,2.02,0,16.15,0,32.29,.01,48.44v1.95c0,2.29,0,4.57,0,6.86,0,3.81,0,7.62,0,11.43,0,1.85,0,3.71-.01,5.56-.24,3.64-.49,7.28-.83,12.38Zm246.6,12.19h3.08c0,.48,0,.95,0,1.43-1.15-.09-2.29-.17-4.03-.3-2.19-3.97-4.6-8.1-6.79-12.36-5.66-10.98-11.2-22.01-16.81-33.01-1.95-3.82-3.92-7.63-5.96-11.41-.56-1.03-1.38-1.92-2.08-2.88,.05,11.12,.11,22.25,.16,33.37h7.19v26.23h-39.93v-25.94c2.22-.15,4.47-.3,7.07-.47v-69.48c-2.23-.16-4.47-.32-7-.5v-25.97h31.37c9.59,18.7,19.23,37.52,28.88,56.33,.13-.03,.26-.07,.39-.1v-29.76c-2.45-.16-4.88-.32-7.49-.49v-26.34h15.05c0,.47-.02,.95-.03,1.42h-13.92v23.77c2.58,.18,4.93,.35,7.17,.51,1.01,3.51,.87,33.22-.27,35.5-10.26-20.07-20.39-39.91-30.47-59.63h-29.52v23.5c2.46,.29,4.7,.55,7.04,.82v71.64c-2.68,.16-5.04,.29-7.09,.41v23.55h37.63v-23.55c-1.63-.09-2.99-.04-4.3-.27-.93-.16-1.78-.7-2.67-1.08-.02-.19-.02-.38,.01-.57-.14-2.08-.41-4.16-.39-6.24,.07-5.34,.28-10.67,.43-16.01,0-1.21,0-2.41-.01-3.62,0-1.95,0-3.9,0-5.86,0-.38,0-.77,0-1.15,.02-.43,.04-.85,.06-1.28,.54-.01,1.08-.02,1.62-.03,.81,1.34,1.69,2.65,2.41,4.04,9.09,17.59,18.14,35.19,27.23,52.78,.56,1.09,1.35,2.06,2,3.02Zm-163.59-109.11c-2.05-1.95-4.1-3.9-6.15-5.85-.43-.43-.86-.87-1.3-1.3-.18-.18-.36-.35-.54-.53-.45-.43-.91-.87-1.36-1.3-.2-.19-.39-.39-.59-.58-.22-.21-.44-.42-.65-.64-.57-.72-1.15-1.44-1.59-1.99-.62-.09-.93-.18-1.24-.18-15.2-.02-30.4-.07-45.6,.03-1.19,0-2.62,.76-3.53,1.6-3.53,3.27-6.85,6.78-10.36,10.09-1.5,1.41-2.17,2.99-2.12,5,.09,3.13,.15,6.27,.16,9.4,.02,11.1,0,22.2,0,33.65,.55,.41,1.28,.96,2.01,1.5h0c.22,.2,.43,.4,.65,.6,.73,.63,1.46,1.27,2.19,1.9h0c.51,.45,1.02,.89,1.53,1.33,0,0,0,0,0,0l4.91,4.24c.78,.75,1.56,1.51,2.29,2.31,1.56,1.71,3.35,2.21,5.6,2.18,8.82-.1,17.64-.06,26.46-.04,1.21,0,2.41,.16,3.63,.25v22.11h-21.77c.29-4.04-1.04-7.89,.95-11.41h-28.03c-.19,.97-.48,1.77-.49,2.58-.07,6.4-.15,12.81-.06,19.21,.01,1.03,.6,2.28,1.34,3.02,4.53,4.51,9.17,8.89,13.62,13.16h47.57c4.93-5.12,9.79-10.18,15.06-15.65v-44.73c-1.5-1.39-2.8-2.6-4.11-3.81-3.7-3.4-7.41-6.8-11.11-10.2-1.35-.38-2.69-1.07-4.04-1.09-9.13-.1-18.26-.05-27.4-.07-1.22,0-2.45-.12-3.8-.19v-20.23h22.67v9.78h28.05v-21.77c-.77-.59-1.51-1.16-2.24-1.72-.21-.21-.41-.42-.62-.62Zm1.46,3.08v19.97h-25.7v-9.96c-8.53-.29-16.62-.43-24.87,.08v22.5c1.5,.08,2.74,.21,3.97,.21,9.45,.01,18.91-.02,28.36,.02,1.23,0,2.47,.34,3.7,.53,4.66,4.97,9.33,9.93,14.59,15.54v41.46c-5.42,5.8-10.06,10.78-14.59,15.62h-47.39c-4.13-4.49-8.61-9.34-12.99-14.09v-21.4h24.9v11.37h24.09v-24.32c-1.37,0-2.5,0-3.62,0-9.03,0-18.07-.05-27.1,.02-2.03,.01-3.58-.57-5.05-2-.65-.63-1.33-1.23-2.03-1.82h0s-5.7-4.8-5.7-4.8c.04-.05,.08-.1,.12-.16-1.31-.95-2.62-1.9-3.93-2.85-.2-.2-.41-.4-.61-.6-.51-1.52-1.44-3.05-1.46-4.58-.11-12.7-.04-25.39-.03-38.09,0-1.24,0-2.49,0-3.01,4.79-4.99,9.07-9.45,13.18-13.73,.75-.1,1.17-.2,1.58-.2,14.8-.02,29.6-.05,44.4,.03,1.23,0,2.46,.89,3.69,1.36,.22,.2,.44,.4,.66,.6,.2,.22,.39,.43,.59,.65,.41,.44,.82,.87,1.22,1.31,.21,.21,.41,.42,.62,.63,.44,.4,.88,.81,1.32,1.21,2.05,1.96,4.1,3.92,6.15,5.88,.19,.19,.38,.38,.57,.57,.51,.78,1.02,1.56,1.32,2.02Zm130.5,46.2c-.54,.01-1.08,.02-1.62,.03,.01-.42,.02-.83,.03-1.25,.24-.09,.48-.18,.72-.27l.07,.15c.17,.24,.35,.49,.52,.73,.09,.2,.19,.4,.28,.6Zm-264.59-36.71c-1.06,6.3-.6,70.08,.47,72.43h23.14v-72.67c-8.02-.03-15.87-.4-23.61,.24Zm22.53,71.2h-21.29c-.17-1.45-.48-2.86-.47-4.26,.05-9.54,.25-19.08,.24-28.62,0-9.86-.18-19.73-.27-29.59-.02-2.4,0-4.79,0-7.51h21.78v69.98Z" style="fill: #828282;"/>
  </g>
</svg>