<?xml version="1.0" encoding="UTF-8"?>
<svg id="Layer_1" data-name="Layer 1" xmlns="http://www.w3.org/2000/svg" viewBox="0 0 512 512">
  <g id="Background" style="opacity: 0;">
    <rect id="Background-2" width="512" height="512" style="fill: #101066;"/>
  </g>
  <g id="wicked">
    <path id="wicked-2" data-name="wicked" d="M97.6,338.61c.79-3.51,1.65-7.01,2.35-10.54,1.51-7.63,2.93-15.28,4.38-22.93,1.27-6.74,2.59-13.46,3.75-20.22,.61-3.53-.77-6.3-3.96-8.03-2.11-1.14-3.35-2.98-2.28-5.06,.57-1.11,2.67-1.94,4.12-1.99,6.22-.2,12.46-.14,18.68,.01,1.27,.03,3.63,.97,3.6,1.36-.12,1.65-.46,3.83-1.6,4.75-5.01,4.11-6.55,9.48-7.19,15.61-.51,4.83-1.91,9.56-2.95,14.33-2.16,9.9-4.39,19.79-6.5,29.7-1.79,8.42-3.41,16.88-5.21,25.29-.7,3.26-2,4.19-5.33,4.2-4.91,.02-9.81,0-14.72-.03-3.84-.02-5.36-1.14-6.33-4.97-1.93-7.64-3.82-15.3-5.61-22.97-1.23-5.29-2.23-10.63-3.4-15.93-.23-1.04-.74-2.01-1.82-3-1.38,5.31-2.87,10.59-4.12,15.93-1.96,8.38-3.69,16.81-5.66,25.19-1.19,5.08-2.31,5.87-7.36,5.87-4.62,0-9.26-.27-13.86-.03-3.28,.17-4.69-1.57-5.37-4.22-1.49-5.82-2.89-11.67-4.2-17.53-4.22-18.86-8.39-37.73-12.56-56.6-.92-4.17-2.36-7.99-5.62-11.06-1.04-.97-1.6-2.98-1.47-4.43,.05-.6,2.49-1.38,3.85-1.41,9.43-.17,18.87-.23,28.31-.15,1.35,.01,3.56,.65,3.83,1.49,.43,1.34,.12,3.72-.85,4.58-4.62,4.13-4.23,9.28-3.17,14.37,3.18,15.34,6.63,30.62,10,45.91,.29,1.33,.81,2.62,1.36,4.36,1.31-5.69,2.5-10.96,3.73-16.22,2.23-9.52,4.86-18.96,6.59-28.57,1.31-7.28,1.3-14.66-4.96-20.4-2.11-1.93-1.35-4.31,1.33-5.13,.8-.25,1.66-.45,2.49-.45,8.4,0,16.8-.03,25.19,.19,1.35,.03,3.16,.87,3.9,1.93,1.2,1.73-.21,3.3-1.7,4.19-3.89,2.31-3.28,5.9-2.56,9.26,1.62,7.61,3.62,15.14,5.35,22.73,2.14,9.4,4.15,18.82,6.24,28.23,.17,.78,.47,1.54,.71,2.31,.2,0,.4,0,.6,.01Zm346.48,26.8c7.71-.31,15.57,.24,23.09-1.1,19.44-3.47,29.52-13.6,35.1-31.31,2.84-9.02,3.02-18.34,1.18-27.63-1.71-8.61-5.75-16.14-11.38-22.79-1.36-1.61-3.4-2.63-5.05-4.02-5.43-4.6-11.43-7.78-18.75-7.93-14.79-.29-29.57-.67-44.36-.84-1.32-.01-3.27,.96-3.83,2.05-.88,1.69,.26,3.2,1.9,4.46,3.02,2.32,4.82,5.41,4.78,9.42-.06,6.03,.02,12.07,.02,18.11,0,15.09,.07,30.18-.08,45.27-.04,3.73-.52,7.51-4.99,9.14-1.84,.67-2.48,2.84-1.42,4.25,.96,1.28,2.95,2.41,4.54,2.48,6.4,.28,12.82,.11,19.24,.11,0,.11,0,.22,0,.33Zm6.25-76.18c.09-9.08,1.38-7.58,7.83-7.38,8.33,.25,15.58,7.96,17.08,13.6,2.32,8.72,3.91,17.65,2.96,26.73-.65,6.13-1.5,12.29-2.99,18.26-1.41,5.66-5.85,9.11-11.11,11.14-2.75,1.06-5.81,1.61-8.76,1.8-3.73,.25-4.66-.82-4.67-4.59-.05-10.63-.02-21.26-.02-31.9-.11,0-.22,0-.33,0,0-9.22-.07-18.44,.02-27.66Zm-154.16,44.64c2.87,6.5,5.74,13,8.33,19.61,.51,1.31,.3,4.01-.52,4.51-2.33,1.41-2.32,3.5-1.54,5.07,.55,1.11,2.73,1.94,4.2,1.97,10.19,.16,20.38,.1,30.56,.05,3.35-.02,3.86-.77,3.83-4.04-.02-2.44-2.05-2.58-3.43-3.56-1.93-1.37-4.19-2.6-5.47-4.47-2.15-3.13-3.71-6.67-5.37-10.12-2.18-4.55-4.13-9.2-6.33-13.74-3.46-7.16-7.02-14.27-10.59-21.37-.94-1.87-.08-3.24,1-4.61,3.58-4.55,7.49-8.9,10.68-13.71,3.68-5.55,7.9-10.14,14.43-12.21,2.51-.79,3.21-2.69,2.73-5.14-.47-2.38-2.35-2.42-4.17-2.42-6.51,0-13.02,.01-19.53,.09-1.87,.02-3.78,.1-5.61,.45-2.34,.44-2.98,2.11-1.78,4.17,.37,.64,.89,1.26,1.48,1.7,3.29,2.5,3.26,4.21,1.04,7.81-3.24,5.25-7.02,10.17-10.67,15.16-2.26,3.09-4.59,6.13-7.07,9.05-1.57,1.85-3.47,3.42-5.82,5.7,0-10.29,.03-19.6-.01-28.92-.02-3.63,1.68-6.4,4.49-8.32,2.1-1.43,2.44-3.38,1.62-5.09-.47-.99-2.6-1.66-3.99-1.68-8.87-.15-17.74-.08-26.61-.07-.94,0-1.98-.13-2.8,.22-1.03,.44-2.45,1.16-2.66,2.02-.26,1.03,.19,2.86,.99,3.44,4.31,3.14,5.42,7.64,5.4,12.44-.06,21.12-.27,42.25-.5,63.37-.03,2.98-.86,5.7-3.99,7.16-1.6,.75-2.72,2-2,4.11,.7,2.04,2.13,2.64,4.14,2.63,9.24-.03,18.49,0,27.73,0,1.77,0,3.85,.25,4.4-2.06,.57-2.38-.06-4.23-2.47-5.64-1.39-.81-2.82-2.62-3.06-4.16-.61-3.88-.25-7.91-.83-11.79-.91-6.1,.21-11.12,6.18-14.52,1.21,2.31,2.54,4.54,3.59,6.91Zm56.4-16.25c0,10.47,.1,20.94-.06,31.41-.05,3.44-.44,7.01-3.8,9.22-1.71,1.12-2.53,3.02-1.58,4.59,.7,1.16,2.64,2.05,4.11,2.18,3.46,.31,6.97,.1,10.46,.1,15.46,0,30.92,0,46.39,0,2.87,0,5.2-1.22,5.55-4.16,.75-6.42,1.22-12.88,1.56-19.34,.12-2.31-1.42-3.4-3.83-3.6-2.58-.21-3.98,.91-5.08,3.08-1.09,2.16-2.14,4.52-3.81,6.19-6.25,6.28-14.26,6.85-22.53,6.39-2.06-.12-3.14-1.05-3.25-3.07-.18-3.46-.43-6.93-.44-10.39-.01-5.37,.11-10.74,.29-16.11,.02-.68,.7-1.92,1.06-1.92,3.88,.09,8-.55,11.28,2.28,1.84,1.59,3.28,3.68,5.23,5.1,1.04,.76,2.95,1.08,4.12,.65,1.03-.38,2.21-2.05,2.25-3.19,.23-6.4,.27-12.82,.03-19.22-.05-1.4-1.22-3.52-2.35-3.92-1.19-.41-3.6,.4-4.37,1.47-3.4,4.71-8.07,5.71-13.39,5.58-3.51-.09-4.28-.78-4.21-4.32,.11-4.99,.18-9.98,.27-14.97,.05-2.53-.02-5.08,.29-7.57,.1-.83,1.2-2.16,1.9-2.2,9.3-.52,18.4-.71,24.09,9.79,1.26,2.32,3.36,2.96,5.76,2.39,2.54-.6,3.42-2.6,3.24-4.95-.4-5.24-1-10.47-1.46-15.71-.27-3.01-2.03-3.85-4.8-3.84-17.92,.09-35.85,.1-53.77,.15-.75,0-1.63-.07-2.21,.28-.98,.58-2.36,1.39-2.48,2.26-.16,1.17,.56,2.56,1.18,3.71,.51,.94,1.77,1.55,2.09,2.51,.9,2.7,2.03,5.5,2.09,8.28,.24,10.28,.1,20.56,.1,30.84h.09Zm-104.79-30.41c-.26-4.5-.29-9.04-.85-13.5-.36-2.89-2.37-3.75-4.94-2.33-1.95,1.07-3.7,.95-5.66,.3-5.6-1.86-11.14-3.61-17.18-4-7.21-.46-13.88,1.16-20.09,4.23-5.34,2.64-9.66,6.78-13.45,11.58-6.21,7.87-9.03,16.88-10.37,26.58-1.05,7.64-.2,15.19,.69,22.78,1.08,9.27,5.58,16.98,11.65,23.54,3.25,3.51,8.03,5.79,12.45,7.96,5.93,2.93,12.48,3.46,19.01,2.96,11.63-.89,21.28-5.47,27.38-15.9,1.36-2.32,2.38-4.88,3.22-7.44,.67-2.03-1.11-4.86-3.28-5.61-2.26-.78-3.61,.24-4.73,2.29-3.65,6.67-9.37,10.49-16.84,11.86-6.31,1.17-15.59-2.4-18.18-7.14-4.58-8.39-6-17.52-5.94-26.9,.07-10.28,1.17-20.5,5.79-29.84,1.47-2.98,3.91-6.57,6.73-7.58,8.68-3.11,17.99-.86,21.66,10.04,.93,2.75,1.74,5.55,2.83,8.23,1.2,2.92,3.74,4.45,6.11,4,2.31-.44,3.67-2.5,3.74-5.9,.07-3.39,.02-6.79,.02-10.19,.07,0,.14,0,.22-.01Zm-108.17,30.44c0,10.65,.12,21.31-.07,31.96-.06,3.42-.09,7.1-4.05,9.12-.97,.49-1.84,2.47-1.68,3.63,.25,1.93,1.92,2.75,4,2.74,9.14-.04,18.29,.11,27.43-.08,1.38-.03,3.5-1.2,3.89-2.33,.4-1.16-.47-3.66-1.52-4.26-4-2.26-4.37-6.03-4.39-9.72-.14-20.65-.07-41.3-.08-61.95,0-4.15,1.28-7.73,4.57-10.43,1.51-1.24,2.7-2.96,1.58-4.61-.76-1.12-2.75-1.95-4.2-1.98-8.95-.16-17.91-.05-26.87-.03-.38,0-.81-.06-1.12,.09-1.04,.52-2.84,1.05-2.89,1.7-.12,1.41,.19,3.49,1.15,4.24,3.45,2.69,4.2,6.25,4.21,10.2,.02,10.56,0,21.12,0,31.68,.01,0,.03,0,.04,0Z" style="fill: #9c9c9c;"/>
  </g>
  <g id="for.the">
    <path id="for.the-2" data-name="for.the" d="M350.58,204.88c5.86,0,11.4,.09,16.92-.11,.71-.03,1.93-1.57,1.95-2.44,.18-5.28,.22-10.57-.03-15.84-.06-1.26-1.16-2.77-2.21-3.63-1.77-1.44-2.35-3.33-1.43-4.96,.56-.99,2.64-1.52,4.06-1.56,5.84-.17,11.7-.18,17.54,0,1.29,.04,3.21,.78,3.65,1.75,.45,.99-.18,2.97-1.01,3.94-1.75,2.04-2.63,4.1-2.61,6.83,.1,14.91,.06,29.82,.04,44.72,0,3.17,.77,5.88,3.5,7.89,1.58,1.16,1.25,3.12-.6,4.08-.8,.41-1.81,.56-2.72,.57-6.13,.04-12.27,.12-18.4-.08-1.27-.04-2.88-.93-3.59-1.95-.35-.51,.99-2.17,1.53-3.33,.8-1.71,2.16-3.41,2.24-5.16,.29-5.93,.05-11.89,.16-17.83,.04-1.9-.56-2.82-2.48-2.87-4.71-.12-9.41-.3-14.12-.4-1.69-.04-2.47,.74-2.43,2.61,.11,6.51-.07,13.03,.2,19.52,.06,1.4,1.6,2.72,2.37,4.12,.58,1.05,1.62,2.33,1.37,3.21-.26,.91-1.8,2.02-2.81,2.05-6.6,.18-13.21,.22-19.81,0-1.23-.04-2.66-1.25-3.48-2.31-.27-.35,1.29-1.9,1.72-3.02,.83-2.13,2.01-4.34,2.06-6.53,.26-11.21,.23-22.44,.26-33.66,0-4.24,.1-8.5-.27-12.72-.16-1.81-1.45-3.5-2.12-5.29-.5-1.32-1.45-2.98-1.03-4.01,.42-1.03,2.27-2.02,3.53-2.07,6.41-.23,12.83-.23,19.24-.09,.94,.02,2.53,1.04,2.65,1.79,.21,1.26-.1,3.4-.93,3.88-2.67,1.56-3.02,3.72-2.96,6.41,.11,5.44,.03,10.89,.03,16.47Zm-152.87-28.69c-5.38,0-10.76-.13-16.13,.09-1.36,.05-3.24,.86-3.86,1.92-.88,1.48-.2,3.23,1.53,4.32,2.08,1.32,2.87,3.38,2.86,5.78-.02,15.38-.02,30.76-.08,46.14,0,2.53-.8,4.74-2.98,6.41-.89,.68-2.02,2.32-1.75,2.95,.45,1.02,1.96,2.18,3.05,2.22,6.98,.2,13.96,.2,20.94,.02,1.13-.03,2.84-1.15,3.16-2.13,.27-.83-1.05-2.21-1.73-3.31-.89-1.44-2.51-2.77-2.65-4.26-.48-5.14-.4-10.34-.64-15.51-.09-1.88,.39-3.14,2.41-3.42,1.91-.26,3.39-.06,4.2,2.2,1.74,4.85,3.81,9.58,5.62,14.41,.85,2.25,1.81,4.55-.02,6.94-.68,.89-1.44,2.77-1.05,3.22,.86,1,2.41,1.82,3.74,1.92,3.47,.25,6.98,.08,10.47,.06,3.4-.01,6.81,.15,10.18-.14,1.17-.1,2.86-1.11,3.19-2.08,.28-.83-.95-2.29-1.73-3.3-.73-.94-1.85-1.56-2.63-2.47-5.68-6.61-8.15-14.95-12.02-22.53-.22-.42,.6-1.55,1.16-2.13,.4-.41,1.29-.31,1.78-.68,6.73-5.07,10.36-11.52,9.04-20.23-1.1-7.29-6.3-13.47-13.63-14.67-7.39-1.21-14.93-1.56-22.4-2.29-.02,.18-.04,.36-.06,.54Zm1.78,12.53c.15-3.25,1.22-4.11,4.42-3.94,7.94,.44,11.55,4.16,11.47,12.2-.02,2.3-.38,4.76-1.25,6.87-1.92,4.67-8.72,7.2-13.31,5.11-.68-.31-1.26-1.58-1.31-2.44-.16-3.01-.06-6.03-.06-9.04,0,0,0,0,.01,0,0-2.92-.1-5.85,.03-8.76Zm-27.19,37.55c2.18-7.1,2.55-14.2,1.66-21.46-1.1-8.96-4.16-16.82-11.11-23.14-11.89-10.82-31.88-8.86-41.9,5.23-6.26,8.8-7.59,19.23-6.58,29.9,.62,6.62,2.31,13.04,5.98,18.53,5.56,8.33,14.15,11.19,23.76,11.54,13.16,.27,24.2-7.6,28.19-20.59Zm-35.38-36.88c1.21-2.4,2.28-4.83,5.73-5.06,4.12-.28,7.29,.54,9.34,4.5,2.52,4.87,3.5,10.14,3.9,15.45,.66,8.94,.25,17.89-2.6,26.49-1.95,5.87-7.45,8.71-12.64,6.41-4.15-1.84-5.49-5.95-6.33-10.08-.51-2.48-.84-5.02-1.02-7.54-.17-2.44-.04-4.9-.04-7.35-.01-7.8,.02-15.62,3.65-22.82Zm285.92,56.83c6.7,0,13.4-.06,20.09,.03,2.51,.03,4.29-.75,4.63-3.36,.58-4.47,1.12-8.95,1.34-13.44,.05-.95-1.24-2.64-2.11-2.79-1.21-.2-2.87,.43-3.86,1.27-1.17,.99-1.69,2.71-2.74,3.9-4.92,5.55-11.45,5.45-18.01,4.73-.74-.08-1.79-1.89-1.83-2.93-.17-5.18-.02-10.37-.06-15.56-.01-1.58,.48-2.35,2.14-2.68,4.11-.82,7.35,.08,9.9,3.65,.71,1,2.51,1.85,3.66,1.69,.77-.11,1.75-2.09,1.81-3.28,.22-4.04,.15-8.11,.02-12.16-.03-1.02-.51-2.68-1.14-2.87-.92-.28-2.5,.18-3.19,.9-3.09,3.23-7.01,3.43-10.99,3.22-.79-.04-2.14-1.34-2.16-2.09-.16-5.56-.13-11.13,.05-16.69,.03-.81,1.11-2.25,1.75-2.27,6.2-.24,12.53-.58,16.53,5.69,.6,.94,1.22,2.11,2.14,2.56,1.22,.6,2.77,.93,4.11,.78,1.6-.18,2.11-1.54,1.99-3.18-.28-3.85-.37-7.71-.66-11.56-.17-2.28-1.36-3.65-3.83-3.6-2.64,.05-5.28,.11-7.92,.1-10.38-.02-20.75-.13-31.13,0-1.48,.02-3.49,.68-4.3,1.76-1.23,1.65-.06,3.41,1.51,4.57,2.1,1.55,2.25,3.83,2.26,6.09,.05,14.91,.09,29.81,.02,44.72-.01,2.95-.72,5.7-3.42,7.69-.73,.54-1.15,2.89-.67,3.38,.91,.93,2.58,1.53,3.94,1.56,6.69,.15,13.39,.07,20.09,.07,0,.03,0,.07,0,.1Zm-127.33-69.92c-6.41,0-12.83,.05-19.24-.01-7.67-.08-8.28-.03-8.17,7.57,0,.66-.09,1.32-.12,1.98-.09,2.83-.24,5.65-.22,8.48,.02,2,1.03,3.3,3.12,3.77,2.11,.48,2.55-.85,3.39-2.33,1.65-2.91,3.4-5.89,5.71-8.25,1.12-1.14,3.61-1.26,5.45-1.16,.49,.03,1.21,2.55,1.21,3.93-.03,14.33-.21,28.66-.27,43-.01,2.86-.68,5.24-2.75,7.39-.83,.86-1.18,2.76-.85,3.93,.22,.77,2.05,1.48,3.18,1.51,6.13,.14,12.26,.08,18.39,.03,1.11,0,2.29-.13,3.32-.53,1.68-.64,2.3-3,.93-3.85-4.47-2.77-4.36-7.15-4.39-11.49-.07-9.43-.06-18.86-.07-28.29,0-4.43-.03-8.87,.05-13.3,.05-3.03,1.34-4.1,4.09-3.14,1.37,.48,2.78,1.54,3.62,2.73,1.79,2.52,3.2,5.31,4.81,7.96,1.24,2.05,3.8,2.69,4.86,1.04,.74-1.16,1.04-2.81,1-4.22-.13-4.14-.63-8.26-.79-12.39-.15-3.77-.65-4.37-4.48-4.37-7.26,0-14.52,0-21.79,0,0,.01,0,.02,0,.03Zm-210.39-.06c-6.6,0-13.2-.08-19.8,.08-1.18,.03-2.93,.8-3.35,1.72-.44,.96-.05,3.06,.75,3.7,2.96,2.4,3.29,5.53,3.28,8.89-.01,9.81,0,19.62-.06,29.42-.03,4.9-.16,9.8-.31,14.7-.08,2.55-.93,4.66-3.1,6.34-.77,.6-1.07,2.38-.86,3.48,.12,.66,1.6,1.2,2.56,1.52,.77,.25,1.68,.08,2.53,.08,5.94,0,11.89,.12,17.82-.12,1.2-.05,2.47-1.34,3.4-2.34,.17-.18-1.13-1.71-1.71-2.64-1-1.61-2.67-3.19-2.83-4.89-.53-5.71-.61-11.46-.61-17.2,0-.82,1.24-2.14,2.12-2.37,3.77-.97,7.14-.22,10.06,2.69,1.2,1.19,3.13,1.64,4.73,2.43,.68-1.65,1.78-3.26,1.96-4.97,.35-3.36,.37-6.79,.14-10.17-.09-1.4-.88-3.09-1.93-3.95-.48-.4-2.71,.55-3.51,1.45-3.23,3.67-7.23,4.12-11.58,3.15-.8-.18-1.97-1.31-1.99-2.02-.15-5.84-.13-11.69,.02-17.53,.02-.73,1.07-2.01,1.7-2.04,2.71-.14,5.47-.12,8.16,.21,4.3,.54,7.33,2.91,9.3,6.84,.95,1.88,2.78,2.8,5.01,2.2,2.23-.6,2.49-2.39,2.31-4.27-.33-3.64-.92-7.27-1.1-10.92-.13-2.71-1.37-3.61-3.91-3.59-6.41,.07-12.82,.02-19.23,.02,0,.03,0,.05,0,.08Z" style="fill: #787878;"/>
  </g>
  <g id="Pray">
    <path id="Pray-2" data-name="Pray" d="M177.27,17.58c10.19,0,20.38-.11,30.57,.03,8.27,.11,16.47,1.39,23.54,5.83,5.82,3.65,11.17,7.94,13.93,14.91,2.18,5.51,4.23,11.01,3.74,16.84-.42,5.04-1.97,10.03-3.39,14.93-2.33,8.04-8.85,12.52-15.21,17.07-.53,.38-1.12,.7-1.74,.91-3.85,1.28-4.41,2.38-2.62,6.2,2.62,5.59,5.44,11.09,8.1,16.67,3.26,6.85,6.35,13.77,9.67,20.59,1.67,3.44,3.43,6.88,5.61,10,1.21,1.73,3.24,3.02,5.14,4.09,2.28,1.29,2.94,3.07,2.53,5.42-.41,2.33-2.1,2.81-4.2,2.82-14.06,.03-28.12,.17-42.18,.09-1.77,0-4.35,.91-5.05-2.22-.6-2.67-.05-4.46,2.25-6.31,1.27-1.02,1.65-3.58,1.76-5.49,.1-1.6-.6-3.33-1.24-4.88-3.87-9.33-7.85-18.61-11.75-27.93-.82-1.97-1.28-4.1-2.21-6-1.58-3.22-8.81-4.8-11.51-2.54-.51,.43-.69,1.49-.69,2.26-.03,7.82-.06,15.63,.05,23.45,.06,4.33,.2,8.67,.63,12.97,.38,3.77,2.04,6.94,5.57,8.91,1.9,1.06,2.78,2.82,2.21,5.03-.54,2.1-2.25,2.7-4.14,2.72-5.18,.05-10.36-.02-15.55-.02-9.24,0-18.49,.04-27.73,.01-4.34-.01-5.78-1.76-4.75-5.85,.22-.89,.99-2.02,1.78-2.32,3.46-1.28,5.18-4.03,5.45-7.27,.65-7.86,1.03-15.76,1.16-23.65,.28-16.88,.46-33.77,.41-50.65-.03-9.69-.53-19.37-.95-29.05-.19-4.41-2.86-7.57-6.23-9.94-2.14-1.51-2.2-3.52-1.47-5.14,.53-1.18,2.57-2.31,3.97-2.36,6.6-.25,13.21-.13,19.81-.13,4.91,0,9.81,0,14.72,0h0Zm5.12,40.66c0,6.22,.01,12.44,0,18.67,0,2.8,1.25,4.57,4.13,4.67,2.89,.1,5.85,.25,8.68-.2,7.09-1.12,13.33-3.71,16.45-10.94,2.87-6.64,3.06-13.5,1.72-20.46-1.39-7.23-5.48-12.44-12.74-14.19-4.32-1.04-8.91-1.2-13.39-1.34-3.5-.11-4.77,1.34-4.82,4.84-.08,6.31-.02,12.63-.03,18.95ZM36.63,85.42c0-15.94,.06-31.87-.03-47.81-.03-5.21-2.47-9.38-6.66-12.41-1.87-1.35-3.16-2.82-2.28-5.16,.83-2.21,2.82-2.51,4.92-2.5,18.5,.08,37-.11,55.48,.32,6.51,.15,13.23,1.03,19.39,3.02,4.5,1.45,8.56,4.9,12.22,8.13,3.17,2.79,6.24,6.18,8.02,9.94,2.31,4.89,3.67,10.33,4.78,15.68,1.42,6.84,.12,13.66-1.58,20.35-1.67,6.56-4.64,12.32-9.41,17.27-7.28,7.56-16.42,10.99-26.44,12.21-6.32,.77-12.76,.65-19.15,.85-3.25,.1-4.41,.9-4.4,4.13,.03,8.86,.1,17.72,.51,26.57,.2,4.38,1.85,8.21,6.47,10.07,2.02,.81,2.99,2.61,2.38,4.86-.58,2.15-2.25,2.9-4.32,2.91-14.53,.03-29.06,.03-43.59,.06-2.1,0-3.86-.63-4.25-2.86-.4-2.26,.16-4.24,2.51-5.43,3.53-1.79,4.88-5.24,5.28-8.76,.56-4.94,.54-9.95,.57-14.93,.07-12.17,.02-24.34,.02-36.51-.15,0-.29,0-.44,0Zm63.66-23.31c-1.1-5.4-1.72-10.55-3.25-15.41-2.95-9.38-14.65-12.96-22.91-11.39-.89,.17-2.08,1.95-2.1,3-.28,14.78-.47,29.56-.46,44.34,0,4.84,.63,5.17,5.41,5.24,1.22,.02,2.45-.08,3.67-.05,8.08,.18,13.45-4.03,16.2-11.15,1.79-4.63,2.34-9.74,3.43-14.58Zm258.91,91.8c-7.35,0-14.71-.04-22.06,.02-2.62,.02-4.8-.53-5.24-3.5-.4-2.7,1.1-4.08,3.58-4.92,3.31-1.12,5.4-5.48,4.55-9.65-1.17-5.77-2.57-11.5-3.91-17.24-.55-2.35-1.92-3.72-4.52-3.7-9.05,.06-18.11,.04-27.16,.09-2.57,.01-4.13,1.21-4.63,3.91-1.05,5.73-2.4,11.4-3.39,17.13-.65,3.77,1.65,7.8,4.97,9.57,2.16,1.16,2.57,3.19,2.14,5.33-.39,1.95-1.7,3-3.85,2.99-10.09-.04-20.19,.05-30.28-.1-1.14-.02-2.89-1.04-3.26-2.01-.75-1.97-.59-4.61,1.69-5.39,6.39-2.2,7.44-8.18,9.32-13.18,2.89-7.69,4.8-15.76,7.12-23.67,2.46-8.37,4.99-16.71,7.34-25.11,3.03-10.83,5.97-21.68,8.82-32.56,1.37-5.24,2.49-10.54,3.66-15.83,1.03-4.62-.38-8.39-4.4-10.91-2.06-1.29-2.55-3.01-1.95-5.06,.58-2.01,2.31-2.52,4.26-2.52,14.91,0,29.82-.05,44.72-.02,1.66,0,3.38,.03,4.05,2.22,.68,2.21,.58,4.27-1.32,5.58-3.04,2.09-3.3,4.98-2.55,8.02,2,8.18,4.12,16.34,6.37,24.46,2.14,7.76,4.58,15.43,6.75,23.18,3,10.73,5.72,21.54,8.86,32.22,2.55,8.68,5.37,17.3,8.43,25.81,1.07,2.97,2.8,5.81,6.46,6.86,2.43,.7,2.93,3.02,2.46,5.38-.44,2.25-2.23,2.62-4.11,2.63-7.64,.03-15.28,.01-22.91,.01v-.05Zm-40.28-101.27c-.27-.06-.54-.12-.81-.18-2.05,8.23-4.01,16.49-6.18,24.69-1.48,5.62-3.3,11.14-4.87,16.74-1.23,4.38-.9,4.73,3.57,4.71,5.28-.02,10.56-.03,15.84-.03,4.31,0,4.8-.54,3.68-4.75-1.51-5.7-3.19-11.36-4.74-17.05-2.19-8.03-4.33-16.08-6.5-24.13Zm114.77,17.27c-3.19-6.36-6.44-12.7-9.45-19.14-2.41-5.15-4.73-10.36-6.67-15.7-1.82-4.99-.93-7.09,3.34-10.42,2.04-1.59,2.65-3.98,.98-5.6-.93-.91-2.66-1.38-4.03-1.39-12.17-.1-24.34-.04-36.51-.04-4.53,0-9.06,0-13.59,0-2.22,0-3.98,.84-4.35,3.17-.35,2.18,.55,3.76,2.87,4.51,1.21,.39,2.27,1.27,3.38,1.95,6.47,3.95,9.62,10.61,13.33,16.72,3.34,5.5,6.17,11.32,9.19,17.01,2.02,3.81,4.05,7.62,5.96,11.49,2.02,4.09,3.85,8.26,5.83,12.37,2.19,4.52,5.25,8.7,5.25,14.05,0,10.47,.16,20.94,.03,31.41-.04,3.45-.73,6.9-1.14,10.35-.3,2.52-1.39,4.31-4.02,5.19-2.55,.85-2.99,3.34-2.28,5.38,.41,1.17,2.42,2.51,3.73,2.53,14.52,.19,29.04,.13,43.56,.16,2.22,0,3.65-.94,3.96-3.17,.32-2.37-.39-4.23-2.89-5.13-1.02-.37-2.39-.86-2.77-1.67-1.32-2.85-3.07-5.82-3.23-8.82-.54-9.97-.18-19.99-.7-29.97-.32-6.18,1.4-11.71,3.83-17.1,3.53-7.86,7.37-15.59,11.12-23.35,2.53-5.24,5.18-10.42,7.68-15.68,3.57-7.5,6.87-15.17,13.38-20.74,1.33-1.14,2.94-1.98,4.49-2.83,2.2-1.21,3.06-3.05,2.54-5.41-.5-2.28-2.2-2.67-4.33-2.53-2.82,.18-5.66,.1-8.49,.1-7.74,0-15.47-.07-23.21-.03-3.51,.02-4.73,1.37-3.84,4.78,.33,1.27,1.84,2.4,3.05,3.25,4.89,3.44,5.72,5.77,3.35,11.23-1.57,3.62-3.43,7.11-5.13,10.68-3.96,8.34-7.9,16.69-12.14,25.64-.9-1.37-1.6-2.25-2.1-3.24Z" style="fill: #3c3c3c;"/>
  </g>
</svg>